<svg xmlns="http://www.w3.org/2000/svg" viewBox="0 0 1368 246.5">
  <defs>
    <clipPath id="b">
      <path
          d="M809.4 946.8c0-223.5-181.2-404.7-404.7-404.7S0 723.3 0 946.8s181.2 404.7 404.7 404.7 404.7-181.2 404.7-404.7z"/>
    </clipPath>
    <clipPath id="a">
      <path d="M0 0v1351h14670V0z"/>
    </clipPath>
  </defs>
  <path
      d="M357.306 129.596c0-12.31-1.978-21.01-5.924-26.1-3.95-5.086-10.38-7.63-19.28-7.63-8.905 0-15.6 2.678-20.08 8.032-4.49 5.355-6.796 13.92-6.93 25.7zm5.422 43.57l5.824-.602.402 11.85c-15.26 2.14-28.31 3.212-39.16 3.212-14.46 0-24.7-4.18-30.72-12.55-6.023-8.364-9.036-21.38-9.036-39.05 0-35.21 13.99-52.81 41.97-52.81 13.52 0 23.63 3.782 30.32 11.35 6.692 7.564 10.04 19.44 10.04 35.64l-.804 11.45h-66.26c0 11.11 2.008 19.35 6.025 24.7 4.01 5.356 11.01 8.032 20.98 8.032 9.96 0 20.11-.4 30.42-1.206m33.57 12.414h15.06v-144.1H396.3zm55-29.1c0 12.32 5.08 18.47 15.26 18.47 9.1 0 18.07-1.537 26.91-4.62l4.61-1.605v-33.13l-29.72 2.82c-6.02.54-10.37 2.28-13.05 5.22-2.68 2.95-4.02 7.23-4.02 12.85zm61.85-40.96v51.41c.4 4.953 4.28 7.9 11.65 8.834l-.61 11.85c-10.58 0-18.54-2.676-23.9-8.03-12.05 5.354-24.1 8.03-36.14 8.03-9.24 0-16.26-2.61-21.09-7.83-4.82-5.22-7.23-12.72-7.23-22.49 0-9.772 2.48-16.97 7.43-21.59 4.95-4.62 12.72-7.462 23.3-8.535l31.52-3.012v-8.634c0-6.83-1.48-11.71-4.42-14.66-2.95-2.95-6.96-4.42-12.05-4.42-10.71 0-21.82.67-33.34 2l-6.23.6-.61-11.45c14.73-2.94 27.78-4.42 39.16-4.42s19.64 2.61 24.8 7.83c5.15 5.22 7.73 13.38 7.73 24.5m61.15-18.84c-14.59 0-21.89 5.09-21.89 15.26 0 4.68 1.673 8 5.02 9.94 3.345 1.94 10.98 3.95 22.89 6.02 11.91 2.08 20.35 4.99 25.3 8.73 4.95 3.75 7.43 10.78 7.43 21.08 0 10.31-3.314 17.87-9.94 22.69-6.627 4.82-16.3 7.22-29.01 7.22-8.306 0-18.07-.94-29.32-2.81l-6.024-1.01.8-13.05c15.26 2.277 26.77 3.415 34.54 3.415 7.76 0 13.68-1.24 17.77-3.72 4.087-2.475 6.13-6.625 6.13-12.45 0-5.823-1.74-9.77-5.22-11.85-3.484-2.075-11.11-4.05-22.89-5.925-11.78-1.87-20.15-4.62-25.1-8.23-4.95-3.614-7.43-10.31-7.43-20.08 0-9.77 3.446-17 10.34-21.69 6.892-4.683 15.49-7.03 25.81-7.03 8.16 0 18.4.94 30.72 2.81l5.622 1.01-.4 12.85c-14.86-2.14-26.57-3.216-35.14-3.216m113 1.616h-31.93v47.99c0 11.52.83 19.08 2.51 22.69 1.67 3.61 5.652 5.42 11.95 5.42l17.87-1.205 1.002 12.45c-8.97 1.472-15.8 2.21-20.48 2.21-10.44 0-17.67-2.54-21.69-7.63-4.015-5.088-6.023-14.79-6.023-29.11V98.3h-14.26V85.14h14.26V54.42h14.86v30.72h31.93v13.05m19 87.406v-100.4h15.06v100.4zm0-123.1v-17.47h15.06v17.47H706.3m81 20.7c4.42 0 11.92.8 22.49 2.41l4.82.6-.6 12.25c-10.71-1.203-18.61-1.806-23.69-1.806-11.38 0-19.11 2.712-23.19 8.134-4.087 5.422-6.126 15.46-6.126 30.12s1.908 24.87 5.723 30.62c3.815 5.758 11.74 8.635 23.79 8.635l23.7-1.81.6 12.45c-12.45 1.87-21.75 2.81-27.91 2.81-15.66 0-26.47-4.02-32.43-12.05-5.954-8.04-8.93-21.59-8.93-40.66 0-19.08 3.21-32.46 9.64-40.16 6.422-7.7 17.13-11.54 32.13-11.54m81.99 13.49c-14.59 0-21.88 5.09-21.88 15.26 0 4.69 1.67 8 5.02 9.94 3.34 1.94 10.97 3.95 22.89 6.02 11.91 2.08 20.35 4.99 25.3 8.73 4.946 3.75 7.43 10.78 7.43 21.08 0 10.31-3.316 17.87-9.944 22.69-6.625 4.82-16.3 7.23-29.02 7.23-8.3 0-18.07-.94-29.32-2.81l-6.022-1.01.8-13.05c15.26 2.27 26.77 3.41 34.54 3.41s13.69-1.24 17.77-3.72c4.09-2.48 6.13-6.63 6.13-12.45 0-5.828-1.74-9.77-5.22-11.85-3.48-2.08-11.11-4.05-22.89-5.93-11.78-1.873-20.15-4.618-25.1-8.23-4.95-3.617-7.43-10.31-7.43-20.08 0-9.77 3.45-17 10.34-21.69 6.9-4.686 15.49-7.03 25.8-7.03 8.17 0 18.4.94 30.72 2.81l5.63 1.006-.4 12.85c-14.86-2.14-26.57-3.214-35.14-3.214m124.71 32.912c0-12.31-1.97-21.01-5.92-26.1s-10.38-7.63-19.28-7.63-15.59 2.672-20.08 8.03c-4.48 5.35-6.79 13.92-6.93 25.7zm5.43 43.57l5.83-.608.4 11.85c-15.26 2.14-28.31 3.21-39.15 3.21-14.46 0-24.7-4.18-30.72-12.55-6.02-8.364-9.03-21.38-9.03-39.05 0-35.21 13.99-52.81 41.97-52.81 13.52 0 23.62 3.78 30.32 11.35 6.69 7.564 10.04 19.44 10.04 35.64l-.8 11.45h-66.26c0 11.11 2.01 19.35 6.02 24.7 4.02 5.356 11.01 8.03 20.99 8.03 9.97 0 20.11-.4 30.42-1.205m42.16-16.685c0 12.32 5.084 18.47 15.26 18.47 9.1 0 18.07-1.536 26.91-4.62l4.615-1.604v-33.1l-29.72 2.815c-6.022.536-10.37 2.277-13.05 5.22-2.682 2.946-4.017 7.23-4.017 12.85zm61.85-40.96v51.41c.4 4.954 4.28 7.9 11.65 8.835l-.606 11.85c-10.58 0-18.54-2.673-23.9-8.03-12.05 5.357-24.09 8.03-36.14 8.03-9.236 0-16.26-2.61-21.08-7.83-4.82-5.22-7.23-12.72-7.23-22.49 0-9.77 2.474-16.97 7.43-21.59 4.957-4.62 12.72-7.46 23.3-8.532l31.52-3.013v-8.63c0-6.83-1.47-11.71-4.41-14.66-2.95-2.945-6.966-4.42-12.05-4.42-10.71 0-21.82.67-33.34 2.008l-6.225.6-.6-11.45c14.72-2.94 27.78-4.418 39.16-4.418s19.64 2.61 24.8 7.83c5.15 5.22 7.73 13.38 7.73 24.5m29.647 70.06V85.19H1148v13.65c11.64-8.033 23.89-13.32 36.74-15.86v15.26c-5.622 1.073-11.48 2.746-17.57 5.02-6.09 2.275-10.74 4.285-13.95 6.023l-5.02 2.61v73.69h-15.06m105-102.394c4.417 0 11.91.8 22.49 2.41l4.82.6-.602 12.25c-10.71-1.2-18.61-1.81-23.69-1.81-11.38 0-19.11 2.71-23.19 8.13-4.087 5.42-6.125 15.46-6.125 30.12s1.91 24.87 5.723 30.62c3.816 5.75 11.75 8.63 23.79 8.63l23.69-1.81.605 12.45c-12.45 1.87-21.76 2.81-27.91 2.81-15.66 0-26.48-4.02-32.43-12.05-5.96-8.03-8.93-21.59-8.93-40.66 0-19.08 3.22-32.46 9.64-40.16 6.43-7.7 17.14-11.54 32.13-11.54m65.1 102.39h-15.06V41.49h15.06v49.39c10.71-5.083 21.02-7.628 30.92-7.628 13.39 0 22.39 3.614 27 10.84 4.63 7.23 6.94 20.08 6.94 38.55v53.01h-15.05v-52.61c0-13.92-1.39-23.46-4.12-28.61-2.75-5.15-8.54-7.73-17.37-7.73-8.435 0-16.6 1.54-24.5 4.62l-3.815 1.404v82.93"
      fill="#211c1d"/>
  <g clip-path="url(#a)" transform="matrix(.30475 0 0 -.30475 0 411.716)">
    <g clip-path="url(#b)">
      <path
          d="M578 1124H25.2c-13.92 0-25.2 11-25.2 25v176.9c0 13.92 11.28 25.2 25.2 25.2h720.4c13.92 0 25.2-11.28 25.2-25.2v-9.29c0-106.5-86.33-192.8-192.8-192.8"
          fill="#ebbc0d"/>
      <path
          d="M772.7 542.1H2.3c-.12 0-.22.097-.22.218v226.9c0 .117.1.218.22.218h577.9c106.4 0 192.7-86.27 192.7-192.7v-34.39c0-.12-.102-.218-.22-.218"
          fill="#53c4ac"/>
      <path d="M532.2 833.1H-40.4v227.3h572.5c62.84 0 113.8-51.01 113.6-113.9-.1-62.6-50.9-113.4-113.6-113.4"
            fill="#49a8e2"/>
      <path d="M353.9 1060H-19.9V833.1h374.7c8.258 34.26 13.33 72.16 13.33 114 0 41.77-5.422 79.45-14.25 113.3"
            fill="#211c1d"/>
    </g>
  </g>
  <path d="M61.306 16.496c-21.05 12.27-38.15 30.57-48.89 52.55h91.07c-9.496-20.86-24.09-38.9-42.18-52.55"
        fill="#d39d16"/>
  <path d="M65.306 231.796c17.79-14.37 31.91-33.1 40.7-54.59h-93.18c11.35 23.23 29.78 42.36 52.48 54.59"
        fill="#359f8e"/>
</svg>